<svg width="46" height="47" viewBox="0 0 46 47" fill="none" xmlns="http://www.w3.org/2000/svg">
<path d="M18.5744 40.8132L18.5727 40.813C15.8867 40.4768 13.232 39.8859 10.6702 39.0608L10.6702 39.0608C8.07733 38.2254 5.56747 37.1356 3.19195 35.8219C3.03225 35.7373 2.85437 35.7932 2.77507 35.9218C2.33866 36.6293 1.90572 37.3354 1.47286 38.0425C1.04917 38.7346 1.25786 39.6817 1.95624 40.2598C2.11831 40.3939 2.2619 40.5183 2.39921 40.6372C2.89982 41.0706 3.31677 41.4317 4.24018 41.9311C5.65363 42.6927 6.54896 42.8496 7.60498 42.9975C7.67514 43.0073 7.74598 43.0171 7.81769 43.027C8.86238 43.1712 10.0889 43.3405 12.0067 44.0466L18.5744 40.8132ZM18.5744 40.8132C21.2492 41.1391 23.9758 41.2206 26.672 41.0475C29.3894 40.8742 32.1065 40.4361 34.7208 39.7534L34.721 39.7533C37.2703 39.0862 39.7279 38.1915 42.083 37.0744C42.8402 36.7152 43.7385 36.9857 44.1368 37.6889L45.194 39.5558C45.2048 39.575 45.2057 39.5978 45.1972 39.6173C45.1933 39.6261 45.1892 39.63 45.1882 39.6308L45.1878 39.6311L45.1877 39.6312L45.1869 39.6315L45.1837 39.6322L45.1837 39.6321L45.1758 39.6335C44.7233 39.7154 44.4848 39.7253 44.2751 39.7341C44.2438 39.7354 44.2131 39.7367 44.1825 39.7382C43.902 39.7518 43.6555 39.7833 43.1907 39.9455L43.1894 39.9459C42.0779 40.3371 41.257 41.0457 40.4302 41.7594C40.3136 41.86 40.197 41.9607 40.0794 42.0606C39.1141 42.8808 38.0026 43.7351 36.208 44.3555C33.7851 45.1918 32.1532 44.8998 30.3683 44.5803C30.2952 44.5672 30.222 44.5541 30.1483 44.541C28.2349 44.2009 26.1611 43.897 22.9995 45.0322L22.9981 45.0328C22.462 45.2271 21.9978 45.4255 21.5773 45.6086C21.5228 45.6324 21.4692 45.6558 21.4165 45.6788C21.0578 45.8354 20.7358 45.976 20.4139 46.0973C19.6937 46.3687 18.9934 46.5354 18.0337 46.4936L18.0337 46.4936M18.5744 40.8132L18.0337 46.4936M18.0337 46.4936C16.9798 46.4478 16.3903 46.1872 15.6109 45.7614M18.0337 46.4936L15.6109 45.7614M15.6109 45.7614C15.4969 45.6991 15.379 45.6333 15.2555 45.5644M15.6109 45.7614L15.2555 45.5644M15.2555 45.5644C14.5066 45.1465 13.5508 44.6132 12.0072 44.0468L15.2555 45.5644Z" fill="#FFDF8C" stroke="#282828" stroke-linejoin="round"/>
<path d="M27.4232 11.5357C27.3599 12.9839 26.1425 14.1059 24.6945 14.0422C23.2471 13.9785 22.1313 12.7552 22.1946 11.3066C22.2579 9.85837 23.4753 8.73641 24.9233 8.80012C26.372 8.86386 27.4865 10.0987 27.4232 11.5357ZM27.4232 11.5357C27.4232 11.5357 27.4232 11.5358 27.4232 11.5359L26.9237 11.5138L27.4232 11.5357ZM34.8352 30.6695L34.8352 30.6694C34.9082 28.9115 33.5451 27.4316 31.8004 27.3582C30.0537 27.2846 28.5829 28.6443 28.4979 30.3979L28.4978 30.4013C28.4248 32.1592 29.7878 33.6391 31.5325 33.7126L31.5327 33.7126C33.289 33.786 34.7621 32.416 34.8352 30.6695ZM6.00422 34.0553C5.2859 33.6831 5.03793 32.7664 5.47235 32.0441L22.7971 3.23967C23.3936 2.24793 24.8409 2.27666 25.3976 3.29129L41.5878 32.801C41.9931 33.5397 41.7089 34.4459 40.9766 34.7893C29.7576 40.0506 16.7769 39.6376 6.00422 34.0553ZM23.7993 26.1287C23.9038 23.8443 22.1288 21.9113 19.8505 21.8175C17.5736 21.7238 15.6467 23.4923 15.5526 25.7763C15.4482 28.0603 17.2225 29.993 19.5002 30.0874C21.7809 30.1923 23.7054 28.4098 23.7993 26.1287Z" fill="#FE5F1E" stroke="#282828"/>
</svg>
